<svg xmlns="http://www.w3.org/2000/svg" viewBox="0 0 220 92" role="img" aria-label="中文课 cartoon logo">
  <defs>
    <linearGradient id="card" x1="0" x2="1" y1="0" y2="1">
      <stop offset="0" stop-color="#fff6b7"/>
      <stop offset="0.58" stop-color="#ffe279"/>
      <stop offset="1" stop-color="#7bd8ee"/>
    </linearGradient>
    <filter id="drop" x="-16%" y="-20%" width="132%" height="145%">
      <feDropShadow dx="0" dy="4" stdDeviation="2" flood-color="#17324d" flood-opacity="0.22"/>
    </filter>
  </defs>

  <path
    d="M21 12 C52 4 168 4 198 12 C211 22 214 63 198 79 C162 89 54 89 21 79 C6 63 8 24 21 12 Z"
    fill="#ff7078"
  />
  <path
    d="M18 8 C54 -1 169 -1 202 9 C218 22 218 66 201 83 C161 93 53 93 18 82 C1 66 3 21 18 8 Z"
    fill="url(#card)"
    stroke="#17324d"
    stroke-width="6"
    stroke-linecap="round"
    stroke-linejoin="round"
    filter="url(#drop)"
  />
  <path
    d="M31 20 C65 13 155 13 189 20 C199 31 199 59 188 72 C151 80 70 80 32 72 C21 59 21 31 31 20 Z"
    fill="#fffdf7"
    opacity="0.58"
  />

  <circle cx="34" cy="25" r="9" fill="#54b86a" stroke="#17324d" stroke-width="4"/>
  <path d="M187 23 l5 10 11 2 -8 8 2 11 -10 -5 -10 5 2 -11 -8 -8 11 -2z" fill="#ffd45d" stroke="#17324d" stroke-width="3" stroke-linejoin="round"/>
  <path d="M42 66 q7 8 16 0" fill="none" stroke="#17324d" stroke-width="4" stroke-linecap="round"/>
  <circle cx="42" cy="55" r="3.5" fill="#17324d"/>
  <circle cx="58" cy="55" r="3.5" fill="#17324d"/>
  <circle cx="34" cy="61" r="4" fill="#ff9aa2" opacity="0.9"/>
  <circle cx="66" cy="61" r="4" fill="#ff9aa2" opacity="0.9"/>

  <text
    x="118"
    y="61"
    fill="#17324d"
    stroke="#fffdf7"
    stroke-width="2.6"
    paint-order="stroke fill"
    font-family="Kaiti SC, STKaiti, Ma Shan Zheng, Comic Sans MS, FangSong, SimSun, Songti SC, serif"
    font-size="43"
    font-weight="900"
    text-anchor="middle"
    letter-spacing="1"
  >中文课</text>
</svg>
